<?xml version="1.0" encoding="UTF-8"?>
<svg width="83px" height="83px" viewBox="0 0 83 83" version="1.1" xmlns="http://www.w3.org/2000/svg" xmlns:xlink="http://www.w3.org/1999/xlink">
    <!-- Generator: sketchtool 59.1 (101010) - https://sketch.com -->
    <title>8F7A927E-01FD-4434-B94A-F4EAEF57DF9B</title>
    <desc>Created with sketchtool.</desc>
    <g id="Page-1" stroke="none" stroke-width="1" fill="none" fill-rule="evenodd">
        <g id="Finished-Project" transform="translate(-85.000000, -713.000000)">
            <g id="doc-card-copy-6-doc-card-active" transform="translate(63.000000, 689.000000)">
                <g id="Filetye-Filetype-Email" transform="translate(22.000000, 24.000000)">
                    <rect id="Rectangle" fill-opacity="0.5" fill="#E1F2F6" x="0" y="0" width="83" height="83" rx="6"></rect>
                    <path d="M56.2410717,21.0958953 L28.1421798,21.0958953 C26.3515668,21.0958953 24.9,22.5474621 24.9,24.3380753 L24.9,43.7911547 C24.9,45.5817679 26.3515668,47.0333347 28.1421798,47.0333347 L56.2410717,47.0333347 C58.0316848,47.0333347 59.4832515,45.5817679 59.4832515,43.7911547 L59.4832515,24.3380753 C59.4832515,22.5474621 58.0316848,21.0958953 56.2410717,21.0958953 Z M56.2410723,24.3380753 L56.2410723,27.0942448 L54.1430507,28.780443 C52.6073139,30.0031906 50.435093,31.715091 47.1503434,34.2871717 L46.7774141,34.5898218 C45.5690103,35.5901326 43.6026986,37.3290899 42.1916261,37.3065308 C40.6240316,37.3318604 38.3699672,35.1816207 37.2329088,34.2871717 L30.2404887,28.7806803 C29.3628339,28.0819002 28.6929773,27.5428125 28.1421799,27.0942448 L28.1421799,24.3380753 L56.2410723,24.3380753 Z M28.1421799,43.7911531 L28.1421799,31.2546196 L33.440346,35.4341149 L33.440346,35.4341149 L35.2302928,36.8369442 C36.7065955,37.9990683 39.2920545,40.5645405 42.1916261,40.5489075 C45.0769498,40.5645405 47.6296256,38.036271 49.1523657,36.8374719 L55.2826448,32.0159841 C55.6279332,31.7423434 55.9462521,31.489458 56.2410723,31.2546196 L56.2410723,43.7911531 L28.1421799,43.7911531 Z" id="" fill="#1A567E" fill-rule="nonzero"></path>
                    <text id="Email" font-family="Lato-Regular, Lato" font-size="12" font-weight="normal" fill="#1A567E">
                        <tspan x="27.262" y="66.0583333">Email</tspan>
                    </text>
                </g>
            </g>
        </g>
    </g>
</svg>