<?xml version="1.0" encoding="UTF-8"?>
<svg width="206px" height="217px" viewBox="0 0 206 217" version="1.1" xmlns="http://www.w3.org/2000/svg" xmlns:xlink="http://www.w3.org/1999/xlink">
    <!-- Generator: sketchtool 59.1 (101010) - https://sketch.com -->
    <title>46A20439-BC1F-4BE7-A120-577859EF6A24</title>
    <desc>Created with sketchtool.</desc>
    <defs>
        <rect id="path-1" x="0" y="0.195841614" width="210" height="121.421801"></rect>
        <polygon id="path-3" points="0.366535491 0.120446809 10.5470053 0.120446809 10.5470053 13.5403468 0.366535491 13.5403468"></polygon>
        <rect id="path-5" x="0" y="0.386383162" width="91" height="76.4166667"></rect>
    </defs>
    <g id="Page-1" stroke="none" stroke-width="1" fill="none" fill-rule="evenodd">
        <g id="Login" transform="translate(-537.000000, -146.000000)">
            <g id="Group-2" transform="translate(535.000000, 146.000000)">
                <g id="Group" transform="translate(28.000000, 0.000000)" fill="#B8C4C2">
                    <rect id="Rectangle-Copy-105" x="0" y="109.756757" width="11.8298969" height="21.2432432" rx="5.91494845"></rect>
                    <rect id="Rectangle-Copy-109" x="0" y="78.6786787" width="11.8298969" height="21.2432432" rx="5.91494845"></rect>
                    <rect id="Rectangle-Copy-110" x="0" y="47.6006006" width="11.8298969" height="21.2432432" rx="5.91494845"></rect>
                    <rect id="Rectangle-Copy-111" x="0" y="16.9159159" width="11.8298969" height="21.2432432" rx="5.91494845"></rect>
                    <rect id="Rectangle-Copy-112" x="141.170103" y="100.315315" width="11.8298969" height="21.2432432" rx="5.91494845"></rect>
                    <rect id="Rectangle-Copy-113" x="141.170103" y="66.8768769" width="11.8298969" height="21.2432432" rx="5.91494845"></rect>
                    <path d="M142.353093,38.1338736 C145.61207,38.1338736 148.253994,40.7757969 148.253994,44.0347745 L148.253994,53.5267871 C148.253994,56.7857647 145.61207,59.427688 142.353093,59.427688 C139.094115,59.427688 136.452192,56.7857647 136.452192,53.5267871 L136.452192,44.0347745 C136.452192,40.7757969 139.094115,38.1338736 142.353093,38.1338736 Z" id="Rectangle-Copy-114" transform="translate(142.353093, 48.780781) rotate(-90.000000) translate(-142.353093, -48.780781) "></path>
                    <path d="M127.406895,14.6617587 C130.057592,12.6353836 133.841945,13.0999371 135.923825,15.7072661 L143.338419,24.9932404 C145.364397,27.5305586 144.949874,31.2298412 142.412556,33.2558195 C142.380225,33.2816349 142.347623,33.3071082 142.314754,33.3322352 C139.664057,35.3586104 135.879704,34.8940569 133.797824,32.2867279 L126.383231,23.0007536 C124.357252,20.4634354 124.771775,16.7641528 127.309093,14.7381745 C127.341424,14.7123591 127.374027,14.6868858 127.406895,14.6617587 Z" id="Rectangle-Copy-115"></path>
                    <path d="M113.56701,38.1338736 C116.825988,38.1338736 119.467911,40.7757969 119.467911,44.0347745 L119.467911,53.5267871 C119.467911,56.7857647 116.825988,59.427688 113.56701,59.427688 C110.308033,59.427688 107.666109,56.7857647 107.666109,53.5267871 L107.666109,44.0347745 C107.666109,40.7757969 110.308033,38.1338736 113.56701,38.1338736 Z" id="Rectangle-Copy-120" transform="translate(113.567010, 48.780781) rotate(-90.000000) translate(-113.567010, -48.780781) "></path>
                    <rect id="Rectangle-Copy-121" x="95.8221649" y="16.9159159" width="11.8298969" height="21.2432432" rx="5.91494845"></rect>
                    <path d="M22.871134,-4.74600632 C26.1301116,-4.74600632 28.7720349,-2.10408299 28.7720349,1.15489459 L28.7720349,10.6469072 C28.7720349,13.9058848 26.1301116,16.5478081 22.871134,16.5478081 C19.6121564,16.5478081 16.9702331,13.9058848 16.9702331,10.6469072 L16.9702331,1.15489459 C16.9702331,-2.10408299 19.6121564,-4.74600632 22.871134,-4.74600632 Z" id="Rectangle-Copy-116" transform="translate(22.871134, 5.900901) rotate(-270.000000) translate(-22.871134, -5.900901) "></path>
                    <path d="M53.628866,-4.74600632 C56.8878436,-4.74600632 59.5297669,-2.10408299 59.5297669,1.15489459 L59.5297669,10.6469072 C59.5297669,13.9058848 56.8878436,16.5478081 53.628866,16.5478081 C50.3698884,16.5478081 47.7279651,13.9058848 47.7279651,10.6469072 L47.7279651,1.15489459 C47.7279651,-2.10408299 50.3698884,-4.74600632 53.628866,-4.74600632 Z" id="Rectangle-Copy-117" transform="translate(53.628866, 5.900901) rotate(-270.000000) translate(-53.628866, -5.900901) "></path>
                    <path d="M84.7809278,-4.74600632 C88.0399054,-4.74600632 90.6818287,-2.10408299 90.6818287,1.15489459 L90.6818287,10.6469072 C90.6818287,13.9058848 88.0399054,16.5478081 84.7809278,16.5478081 C81.5219503,16.5478081 78.8800269,13.9058848 78.8800269,10.6469072 L78.8800269,1.15489459 C78.8800269,-2.10408299 81.5219503,-4.74600632 84.7809278,-4.74600632 Z" id="Rectangle-Copy-118" transform="translate(84.780928, 5.900901) rotate(-270.000000) translate(-84.780928, -5.900901) "></path>
                    <path d="M111.201031,-4.74600632 C114.460009,-4.74600632 117.101932,-2.10408299 117.101932,1.15489459 L117.101932,10.6469072 C117.101932,13.9058848 114.460009,16.5478081 111.201031,16.5478081 C107.942053,16.5478081 105.30013,13.9058848 105.30013,10.6469072 L105.30013,1.15489459 C105.30013,-2.10408299 107.942053,-4.74600632 111.201031,-4.74600632 Z" id="Rectangle-Copy-119" transform="translate(111.201031, 5.900901) rotate(-270.000000) translate(-111.201031, -5.900901) "></path>
                </g>
                <g id="Group-18-Copy-2" transform="translate(0.000000, 119.000000)">
                    <mask id="mask-2" fill="white">
                        <use xlink:href="#path-1"></use>
                    </mask>
                    <g id="Mask"></g>
                    <g id="Group-18" mask="url(#mask-2)">
                        <g transform="translate(28.707865, -118.875860)">
                            <path d="M94.9659895,0 C104.1996,0 113.020675,3.81878429 119.331458,10.5482012 L143.571929,36.3966946 C149.362406,42.57129 152.58427,50.7132321 152.58427,59.1716973 L152.58427,183.277622 C152.58427,201.681519 137.640516,216.600826 119.206461,216.600826 L33.377809,216.600826 C14.9437541,216.600826 -5.75539616e-13,201.681519 -5.75539616e-13,183.277622 L-5.75539616e-13,33.3232039 C-5.75539616e-13,14.9193066 14.9437541,0 33.377809,0 L94.9659895,0 Z M94.9659895,11.9011443 L33.377809,11.9011443 C21.5273451,11.9011443 11.9206461,21.4921271 11.9206461,33.3232039 L11.9206461,183.277622 C11.9206461,195.108698 21.5273451,204.699681 33.377809,204.699681 L119.206461,204.699681 C131.056925,204.699681 140.663624,195.108698 140.663624,183.277622 L140.663624,59.1716973 C140.663624,53.7341125 138.592426,48.5000069 134.869976,44.5306241 L110.629505,18.6821307 C106.741612,14.5363293 101.371638,12.1089705 95.7064973,11.9138881 L94.9659895,11.9011443 Z" id="Rectangle" stroke="none" fill="#13AA52" fill-rule="nonzero"></path>
                            <polyline id="Path-3" stroke="#13AA52" stroke-width="5" fill="none" stroke-linecap="round" stroke-linejoin="round" points="102.517556 5.97981027 102.517556 48.2662692 146.351246 48.2662692"></polyline>
                        </g>
                    </g>
                </g>
                <g id="Group-20-Copy" transform="translate(77.000000, 51.000000)">
                    <path d="M22.6109655,16.0304921 L22.6109655,16.0304921 C24.4543198,17.7106838 24.6774627,20.4809858 23.113037,22.4123769 C21.8008598,24.040433 20.1685211,26.1969555 18.5192041,28.7326468 C17.1754959,30.8038564 14.4007626,31.4863603 12.1717592,30.3583331 L12.1159735,30.3275256 C9.58621233,29.0430913 8.73972465,25.9291675 10.2604919,23.5759512 C11.6066256,21.4976322 13.4135979,18.9429824 15.55771,16.468906 C17.3622568,14.3882172 20.5711485,14.1678253 22.6109655,16.0304921" id="Fill-1" fill="#B8C4C2"></path>
                    <path d="M8.80022876,36.3859111 L8.97293026,36.4579866 C11.2972046,37.4334089 12.4509466,40.044946 11.5994323,42.4210362 C10.877444,44.4319438 10.0379229,47.0651034 9.32552916,50.0970811 C8.76185065,52.4875865 6.44956943,54.0444181 4.02215388,53.6744304 C1.31889566,53.2635998 -0.477679682,50.6544653 0.112383781,47.9804628 C0.671265029,45.4313912 1.47480674,42.2240298 2.51101575,39.177637 C3.38651641,36.5997352 6.29365836,35.3360108 8.80022876,36.3859111" id="Fill-3" fill="#B8C4C2"></path>
                    <g id="Group-9" transform="translate(23.530999, 0.196809)">
                        <mask id="mask-4" fill="white">
                            <use xlink:href="#path-3"></use>
                        </mask>
                        <g id="Clip-8"></g>
                        <path d="M5.45558247,13.5403468 L5.45558247,13.5403468 C2.64496502,13.5403468 0.366535491,11.2754745 0.366535491,8.48158085 L0.366535491,5.17755957 C0.366535491,2.38366596 2.64496502,0.118793617 5.45558247,0.118793617 C8.26857576,0.118793617 10.5470053,2.38366596 10.5470053,5.17755957 L10.5470053,8.48158085 C10.5470053,11.2754745 8.26857576,13.5403468 5.45558247,13.5403468" id="Fill-7" fill="#B8C4C2" mask="url(#mask-4)"></path>
                    </g>
                    <path d="M41.4816407,17.510545 C43.1678908,19.4087032 45.2452938,21.9284664 47.1223501,24.7244987 C48.6273344,26.967993 47.911811,30.0212411 45.5815897,31.3882961 L45.5076523,31.433547 C43.3610821,32.691047 40.6182424,32.0599154 39.2182016,30.0045697 C37.9684208,28.1754788 36.3012512,25.8914968 34.3931888,23.6932534 C32.7737209,21.8260564 32.9120554,19.0085895 34.6841684,17.2819086 C36.6065412,15.41233 39.7023725,15.5075952 41.4816407,17.510545" id="Fill-10" fill="#B8C4C2"></path>
                    <path d="M55.5045059,39.7632803 C56.5976821,42.4042691 57.9099698,45.8778732 58.834049,49.2751343 C59.5509249,51.9041945 57.8718634,54.5881262 55.2115633,55.1583126 L55.0305581,55.1964841 C52.5393549,55.728499 50.0481517,54.2231115 49.4003436,51.7515086 C48.7882603,49.4373631 47.8903792,46.436131 46.6614491,43.3203845 C45.7349883,40.9728389 46.8067296,38.3032215 49.0978744,37.2439631 C51.5604978,36.105976 54.463726,37.2511202 55.5045059,39.7632803" id="Fill-12" fill="#B8C4C2"></path>
                    <path d="M30.4766226,53.8838521 C30.1915632,57.7579825 29.7473455,64.2718392 29.6024403,69.0456605 C29.514547,71.875295 27.0654112,74.044998 24.2480737,73.7815001 C21.7252976,73.5464886 19.8035218,71.4503751 19.7987708,68.9222201 C19.7940199,64.8249473 19.9365496,58.5461022 20.6753286,52.8630946 C21.1100443,49.5444461 24.6922913,47.6429887 27.6996685,49.1171523 L27.7471784,49.1408909 C29.5383019,50.0215909 30.6239033,51.8921882 30.4766226,53.8838521" id="Fill-16" fill="#B8C4C2"></path>
                    <path d="M31.6911654,53.8838521 C31.9739086,57.7579825 32.4182193,64.2718392 32.5655309,69.0456605 C32.6534426,71.875295 35.1007156,74.044998 37.9210195,73.7815001 C40.4419482,73.5464886 42.3665027,71.4503751 42.3688787,68.9222201 C42.3760067,64.8249473 42.2334471,58.5461022 41.4921372,52.8630946 C41.0597065,49.5444461 37.4767088,47.6429887 34.4687014,49.1171523 L34.4211816,49.1408909 C32.6296827,50.0215909 31.5438538,51.8921882 31.6911654,53.8838521" id="Fill-18" fill="#B8C4C2"></path>
                </g>
                <g id="Fill-11-Copy-4" transform="translate(59.000000, 114.000000)">
                    <mask id="mask-6" fill="white">
                        <use xlink:href="#path-5"></use>
                    </mask>
                    <g id="Mask"></g>
                    <path d="M45.3021739,32.380294 C45.3021739,32.380294 45.3021739,-13.9715398 47.0313224,-13.9628436 C48.3577428,-13.9563215 50.0804348,45.8256014 50.0804348,45.8256014 C47.6911026,45.5708772 45.3021739,35.9866525 45.3021739,32.380294 Z M75.2235205,-13.2650502 C67.9373294,-44.3974362 50.7273393,-54.6327561 48.8750761,-58.5447396 C46.840574,-61.3076502 44.7937485,-66.20631 44.7937485,-66.20631 C44.7567779,-66.2891358 44.7044963,-66.4345331 44.640638,-66.5766753 C44.4330053,-63.8275086 44.3220935,-62.7522195 41.6299634,-59.9694162 C37.4593836,-56.8104607 16.0582745,-39.4235461 14.3158027,-4.05076671 C12.6917114,28.9294673 38.9225222,48.5892096 42.4765522,51.095324 L42.8791207,51.3709278 C42.8824817,51.3640558 42.8854692,51.3550137 42.8884567,51.3481417 C42.9119835,51.5127083 44.0147523,59.1977882 44.784039,67.3432929 L47.5613135,67.3494416 C48.5811786,58.1586676 50.4741469,50.294192 50.492072,50.2200466 L50.7064266,50.0804362 C51.2815245,49.6901783 52.9754491,48.5013201 55.2362559,46.4914374 L55.3972086,46.350742 C62.937339,39.6049576 76.4928436,24.000426 76.3598989,-0.884215753 C76.3393597,-4.78534866 75.9935541,-8.90638596 75.2235205,-13.2650502 L75.2235205,-13.2650502 Z" id="Fill-11" fill="#13AA52" mask="url(#mask-6)"></path>
                </g>
                <rect id="Rectangle-Copy-122" fill="#13AA52" x="2" y="112" width="206" height="9" rx="4.5"></rect>
            </g>
        </g>
    </g>
</svg>