<?xml version="1.0" encoding="UTF-8"?>
<svg width="83px" height="84px" viewBox="0 0 83 84" version="1.1" xmlns="http://www.w3.org/2000/svg" xmlns:xlink="http://www.w3.org/1999/xlink">
    <!-- Generator: sketchtool 60.1 (101010) - https://sketch.com -->
    <title>8822F9E7-BF05-4CDB-B6C7-EFC9AD62A19A</title>
    <desc>Created with sketchtool.</desc>
    <g id="Page-1" stroke="none" stroke-width="1" fill="none" fill-rule="evenodd">
        <g id="Home1" transform="translate(-1050.000000, -255.000000)" fill="#89989B" fill-rule="nonzero">
            <path d="M1061.57144,268.714209 L1063.07814,263.792328 L1068.00002,262.28563 L1063.07814,260.778932 L1061.57144,255.857051 L1060.06475,260.778932 L1055.14286,262.28563 L1060.06475,263.792328 L1061.57144,268.714209 Z M1093.71434,268.714209 L1095.22104,263.792328 L1100.14292,262.28563 L1095.22104,260.778932 L1093.71434,255.857051 L1092.20764,260.778932 L1087.28576,262.28563 L1092.20764,263.792328 L1093.71434,268.714209 Z M1063.17859,338.072551 C1064.03238,338.072551 1064.83596,337.771211 1065.43864,337.168532 L1130.02577,272.581401 C1130.62845,271.978722 1130.92979,271.17515 1130.92979,270.321354 C1130.92979,269.467558 1130.62845,268.663986 1130.02577,268.061307 L1120.08156,258.117098 C1119.47888,257.514419 1118.67531,257.213079 1117.82151,257.213079 C1116.96772,257.213079 1116.16414,257.514419 1115.56146,258.117098 L1050.97433,322.704229 C1050.37165,323.306908 1050.07031,324.11048 1050.07031,324.964276 C1050.07031,325.818072 1050.37165,326.621644 1050.97433,327.224323 L1060.91854,337.168532 C1061.52122,337.771211 1062.32479,338.072551 1063.17859,338.072551 Z M1077.64289,284.785657 L1080.65629,274.941895 L1090.50005,271.928499 L1080.65629,268.915102 L1077.64289,259.07134 L1074.6295,268.915102 L1064.78573,271.928499 L1074.6295,274.941895 L1077.64289,284.785657 Z M1108.47998,285.036773 L1103.10609,279.662883 L1117.82151,264.947464 L1123.1954,270.321354 L1108.47998,285.036773 Z M1125.85723,300.857105 L1127.36393,295.935224 L1132.28581,294.428525 L1127.36393,292.921827 L1125.85723,287.999946 L1124.35054,292.921827 L1119.42866,294.428525 L1124.35054,295.935224 L1125.85723,300.857105 Z" id="ïƒ"></path>
        </g>
    </g>
</svg>